<?xml version="1.0" standalone="no"?>
<!DOCTYPE svg PUBLIC "-//W3C//DTD SVG 20010904//EN"
 "http://www.w3.org/TR/2001/REC-SVG-20010904/DTD/svg10.dtd">
<svg version="1.0" xmlns="http://www.w3.org/2000/svg"
 width="512.000000pt" height="512.000000pt" viewBox="0 0 512.000000 512.000000"
 preserveAspectRatio="xMidYMid meet">

<g transform="translate(0.000000,512.000000) scale(0.100000,-0.100000)"
fill="#000000" stroke="none">
<path d="M1972 4704 c-21 -15 -22 -20 -22 -209 0 -163 3 -196 16 -209 24 -25
58 -24 87 1 15 14 17 38 17 205 0 175 -1 189 -20 208 -24 24 -48 25 -78 4z"/>
<path d="M736 4208 c-19 -27 -20 -48 -3 -68 7 -8 69 -70 140 -138 135 -130
158 -141 197 -102 42 42 37 49 -147 224 -91 87 -117 106 -142 106 -20 0 -35
-8 -45 -22z"/>
<path d="M3067 4097 c-146 -140 -160 -163 -119 -200 38 -35 61 -22 205 114
113 108 137 136 137 159 0 36 -24 60 -58 60 -21 0 -59 -31 -165 -133z"/>
<path d="M1895 4029 c-425 -38 -803 -326 -939 -715 -46 -132 -59 -224 -53
-383 5 -159 27 -256 87 -387 92 -204 298 -414 502 -513 41 -19 48 -28 54 -59
33 -200 178 -354 380 -407 87 -22 2520 -23 2607 0 254 66 400 282 367 542 -13
100 -41 185 -88 262 -103 168 -283 291 -477 324 l-77 13 -19 54 c-50 143 -208
338 -353 439 -102 70 -244 136 -363 168 -90 25 -115 27 -296 28 l-198 1 -40
73 c-53 97 -110 171 -203 259 -234 222 -556 331 -891 301z m300 -124 c112 -20
243 -69 346 -131 96 -57 233 -182 294 -268 42 -60 90 -146 83 -150 -2 -1 -37
-15 -79 -30 -158 -56 -315 -171 -425 -309 -64 -81 -131 -198 -153 -269 -12
-35 -14 -37 -69 -43 -317 -34 -555 -227 -629 -508 l-17 -66 -56 31 c-112 63
-247 186 -317 288 -49 73 -101 183 -130 277 -24 79 -26 104 -27 243 0 183 17
260 89 405 134 270 399 467 711 529 94 19 273 19 379 1z m1296 -648 c237 -62
437 -201 566 -394 52 -78 93 -171 93 -211 0 -41 24 -56 106 -63 244 -21 447
-181 513 -404 19 -63 23 -94 19 -169 -3 -80 -8 -99 -38 -154 -53 -99 -144
-167 -258 -191 -74 -16 -2449 -16 -2524 0 -125 26 -246 126 -288 237 -16 40
-22 79 -22 133 0 300 260 549 575 549 69 0 81 3 102 25 14 13 25 35 25 49 0
65 87 224 178 327 91 103 271 215 406 254 179 52 375 56 547 12z"/>
<path d="M244 3062 c-6 -4 -16 -17 -23 -29 -12 -24 -1 -59 23 -75 6 -4 99 -8
207 -8 177 0 197 2 212 18 24 26 21 68 -5 86 -18 13 -57 16 -213 16 -104 0
-195 -4 -201 -8z"/>
<path d="M866 1999 c-75 -72 -138 -140 -141 -150 -10 -32 20 -69 56 -69 25 0
49 18 132 96 191 180 199 192 157 234 -40 40 -61 28 -204 -111z"/>
<path d="M2344 1286 c-17 -13 -19 -29 -22 -153 -3 -159 5 -186 55 -191 54 -5
63 21 63 180 0 125 -2 140 -20 158 -24 24 -49 25 -76 6z"/>
<path d="M2862 1284 c-21 -14 -22 -22 -22 -164 0 -122 3 -151 16 -164 22 -23
71 -20 84 3 5 11 10 84 10 164 0 127 -2 146 -18 160 -23 21 -41 21 -70 1z"/>
<path d="M3384 1292 c-27 -17 -34 -56 -34 -174 0 -143 10 -171 57 -176 54 -5
63 21 63 180 0 125 -2 140 -20 158 -21 21 -47 25 -66 12z"/>
<path d="M3892 1284 c-21 -14 -22 -22 -22 -163 0 -131 2 -150 18 -164 22 -20
63 -22 80 -5 8 8 12 59 12 163 0 134 -2 154 -18 168 -23 21 -41 21 -70 1z"/>
<path d="M2605 745 c-24 -23 -25 -29 -25 -163 0 -146 5 -164 47 -177 17 -4 29
1 48 19 24 24 25 29 25 161 0 131 -1 137 -25 160 -13 14 -29 25 -35 25 -6 0
-22 -11 -35 -25z"/>
<path d="M3129 756 c-24 -11 -24 -13 -24 -171 l0 -159 26 -15 c24 -13 29 -13
53 2 l26 17 0 148 c0 151 -5 172 -41 185 -9 3 -27 0 -40 -7z"/>
<path d="M3635 745 c-24 -23 -25 -29 -25 -160 0 -131 1 -137 25 -160 30 -31
40 -31 70 0 24 23 25 29 25 160 0 131 -1 137 -25 160 -13 14 -29 25 -35 25 -6
0 -22 -11 -35 -25z"/>
</g>
</svg>
